<svg xmlns="http://www.w3.org/2000/svg" viewBox="0 0 663.52 532.08"><defs><style>.a{fill:#00a000;}.b{fill:none;stroke:#000;stroke-miterlimit:10;}</style></defs><path class="a" d="M448,261.87a31.55,31.55,0,0,0,10.7,28.1V242.11A31.39,31.39,0,0,0,448,261.87Z"/><rect class="a" x="499.53" y="234.41" width="17.75" height="63.26"/><path class="a" d="M512,385.84h5.26v-5.25A6.22,6.22,0,0,0,512,385.84Z"/><path class="a" d="M517.28,336.72V299.44H497.75v-66.8h19.53V195.36h-56.8V336.72ZM476.67,266a2.66,2.66,0,1,1,2.66,2.66A2.66,2.66,0,0,1,476.67,266Z"/><path class="a" d="M146.33,380.59v5.25h5.25A6.22,6.22,0,0,0,146.33,380.59Z"/><rect class="a" x="146.33" y="234.41" width="17.75" height="63.26"/><path class="a" d="M215.59,270.21a31.39,31.39,0,0,0-6.22-23.37,31.77,31.77,0,0,0-4.47-4.73V290A31.38,31.38,0,0,0,215.59,270.21Z"/><path class="a" d="M146.33,195.36v37.28h19.52v66.8H146.33v37.28h56.79V195.36ZM186.94,266a2.67,2.67,0,1,1-2.66-2.66A2.66,2.66,0,0,1,186.94,266Z"/><path class="a" d="M528.81,134.7h-394V397.38h394ZM144.55,387.62V144.46h374.5V387.62Z"/><path class="a" d="M517.28,151.49v-5.25H512A6.22,6.22,0,0,0,517.28,151.49Z"/><path class="a" d="M151.58,146.24h-5.25v5.25A6.22,6.22,0,0,0,151.58,146.24Z"/><path class="a" d="M329.14,266a2.66,2.66,0,0,1,1.78-2.51V234.46a31.59,31.59,0,0,0,0,63.16V268.55A2.66,2.66,0,0,1,329.14,266Z"/><path class="a" d="M146.33,153.29v40.3H204.9v46.22a33.31,33.31,0,0,1,12.45,30.63,33.08,33.08,0,0,1-12.45,21.82v46.23H146.33v40.3a8,8,0,0,1,7,7H330.92V299.4a33.37,33.37,0,0,1,0-66.72V146.24H153.38A8,8,0,0,1,146.33,153.29Z"/><path class="a" d="M365.17,266a33.42,33.42,0,0,1-32.48,33.36v86.44H510.23a8,8,0,0,1,7-7v-40.3H458.71V292.27A33.33,33.33,0,0,1,446,266.11a35.43,35.43,0,0,1,.29-4.47,33.13,33.13,0,0,1,12.46-21.82V193.59h58.57v-40.3a8,8,0,0,1-7-7H332.69v86.44A33.42,33.42,0,0,1,365.17,266Z"/><path class="a" d="M363.4,266a31.64,31.64,0,0,0-30.71-31.58v29.07a2.66,2.66,0,0,1,0,5v29.07A31.64,31.64,0,0,0,363.4,266Z"/><path class="b" d="M663,134.52v263A134.11,134.11,0,0,1,528.9,531.58h-.09V.5h.09A134.07,134.07,0,0,1,663,134.52Z"/><rect class="b" x="134.79" y="0.5" width="394.02" height="134.2"/><rect class="b" x="134.79" y="397.38" width="394.02" height="134.2"/><path class="b" d="M134.79.5V531.58h-.18A134.11,134.11,0,0,1,.5,397.47q0-2.46.09-4.89V134.52a134,134,0,0,1,134-134Z"/></svg>